name Walk10.mot
datacolumns 19
datarows 15
range 1.69300000 1.70700000
endheader

                time	   L_ground_force_vx	   L_ground_force_vy	   L_ground_force_vz	   L_ground_force_px	   L_ground_force_py	   L_ground_force_pz	   R_ground_force_vx	   R_ground_force_vy	   R_ground_force_vz	   R_ground_force_px	   R_ground_force_py	   R_ground_force_pz	   L_ground_torque_x	   L_ground_torque_y	   L_ground_torque_z	   R_ground_torque_x	   R_ground_torque_y	   R_ground_torque_z	
          1.69300000	          1.42819999	        701.73730222	         39.79811238	         -0.14757919	          0.00000000	         -0.05743741	         -0.08188002	          0.32350411	          0.01097711	         -0.00015911	          0.00000000	         -0.00006250	          0.00000000	          1.67164770	          0.00000000	          0.00000000	          0.01351751	          0.00000000	
          1.69400000	          2.00862899	        704.11582462	         39.77987987	         -0.14725828	          0.00000000	         -0.05742894	         -0.08149851	          0.24894250	          0.00720465	         -0.00021122	          0.00000000	         -0.00008024	          0.00000000	          1.67552686	          0.00000000	          0.00000000	          0.01398986	          0.00000000	
          1.69500000	          2.60892512	        706.49957771	         39.75993898	         -0.14694357	          0.00000000	         -0.05742017	         -0.08074496	          0.16642413	          0.00305187	         -0.00026731	          0.00000000	         -0.00009930	          0.00000000	          1.67920068	          0.00000000	          0.00000000	          0.01444833	          0.00000000	
          1.69600000	          3.22915563	        708.88750600	         39.73818956	         -0.14663502	          0.00000000	         -0.05741107	         -0.07958793	          0.07555042	         -0.00149941	         -0.00032750	          0.00000000	         -0.00011972	          0.00000000	          1.68266124	          0.00000000	          0.00000000	          0.01488973	          0.00000000	
          1.69700000	          3.86937043	        711.27854005	         39.71453107	         -0.14633259	          0.00000000	         -0.05740164	         -0.07799468	         -0.02407974	         -0.00646742	         -0.00039194	          0.00000000	         -0.00014154	          0.00000000	          1.68589999	          0.00000000	          0.00000000	          0.01531065	          0.00000000	
          1.69800000	          4.52959986	        713.67159639	         39.68886275	         -0.14603623	          0.00000000	         -0.05739186	         -0.07593127	         -0.13286860	         -0.01187038	         -0.00046074	          0.00000000	         -0.00016481	          0.00000000	          1.68890770	          0.00000000	          0.00000000	          0.01570745	          0.00000000	
          1.69900000	          5.20985273	        716.06557667	         39.66108367	         -0.14574589	          0.00000000	         -0.05738172	         -0.07336253	         -0.25121793	         -0.01772638	         -0.00053404	          0.00000000	         -0.00018956	          0.00000000	          1.69167444	          0.00000000	          0.00000000	          0.01607626	          0.00000000	
          1.70000000	          5.91011513	        718.45936646	         39.63109287	         -0.14546152	          0.00000000	         -0.05737120	         -0.07025211	         -0.37952737	         -0.02405335	         -0.00061193	          0.00000000	         -0.00021582	          0.00000000	          1.69418928	          0.00000000	          0.00000000	          0.01641295	          0.00000000	
          1.70100000	          6.63035010	        720.85183371	         39.59878966	         -0.14518305	          0.00000000	         -0.05736028	         -0.06656252	         -0.51819255	         -0.03086890	         -0.00069455	          0.00000000	         -0.00024364	          0.00000000	          1.69644027	          0.00000000	          0.00000000	          0.01671314	          0.00000000	
          1.70200000	          7.37049813	        723.24182750	         39.56407410	         -0.14491042	          0.00000000	         -0.05734894	         -0.06225518	         -0.66760311	         -0.03819031	         -0.00078197	          0.00000000	         -0.00027303	          0.00000000	          1.69841451	          0.00000000	          0.00000000	          0.01697219	          0.00000000	
          1.70300000	          8.13047797	        725.62817734	         39.52684752	         -0.14464357	          0.00000000	         -0.05733716	         -0.05729047	         -0.82814052	         -0.04603434	         -0.00087428	          0.00000000	         -0.00030403	          0.00000000	          1.70009837	          0.00000000	          0.00000000	          0.01718523	          0.00000000	
          1.70400000	          8.91018722	        728.00969314	         39.48701293	         -0.14438242	          0.00000000	         -0.05732492	         -0.05162781	         -1.00017572	         -0.05441716	         -0.00097156	          0.00000000	         -0.00033665	          0.00000000	          1.70147784	          0.00000000	          0.00000000	          0.01734710	          0.00000000	
          1.70500000	          9.70950230	        730.38516588	         39.44447553	         -0.14412691	          0.00000000	         -0.05731221	         -0.04522572	         -1.18406667	         -0.06335422	         -0.00107387	          0.00000000	         -0.00037091	          0.00000000	          1.70253859	          0.00000000	          0.00000000	          0.01745236	          0.00000000	
          1.70600000	         10.52827748	        732.75336865	         39.39914318	         -0.14387694	          0.00000000	         -0.05729898	         -0.03804195	         -1.38015560	         -0.07286010	         -0.00118125	          0.00000000	         -0.00040683	          0.00000000	          1.70326610	          0.00000000	          0.00000000	          0.01749532	          0.00000000	
          1.70700000	         11.36634315	        735.11305753	         39.35092695	         -0.14363243	          0.00000000	         -0.05728524	         -0.03003351	         -1.58876619	         -0.08294841	         -0.00129373	          0.00000000	         -0.00044440	          0.00000000	          1.70364564	          0.00000000	          0.00000000	          0.01747003	          0.00000000	
